<svg width="127" height="25" viewBox="0 0 127 25" fill="none" xmlns="http://www.w3.org/2000/svg">
<path d="M3.2 6.84C5.09 6.84 6.41 5.55 6.41 3.75C6.41 1.95 5.09 0.69 3.2 0.69C1.37 0.69 0.0200001 1.95 0.0200001 3.75C0.0200001 5.55 1.37 6.84 3.2 6.84ZM0.41 24H6.02V8.52H0.41V24ZM8.7575 24H14.3675V15.48C14.3675 13.95 15.3875 12.87 16.7075 12.87C18.0275 12.87 18.8675 13.89 18.8675 15.39V24H24.4775V14.34C24.4775 10.77 22.2275 8.16 19.0175 8.16C17.1875 8.16 15.8975 9 14.6675 10.8H14.3675V8.52H8.7575V24ZM34.9309 24.39C39.3409 24.39 42.5809 22.08 43.0909 18.21L37.9009 17.58C37.6009 18.93 36.4009 19.89 34.9909 19.89C33.2209 19.89 31.9309 18.39 31.9309 16.26C31.9309 14.13 33.2509 12.63 35.0209 12.63C36.3709 12.63 37.6009 13.59 37.9009 14.97L43.0909 14.31C42.6109 10.44 39.3709 8.13 34.9309 8.13C29.7709 8.13 26.3209 11.28 26.3209 16.26C26.3209 21.18 29.8609 24.39 34.9309 24.39ZM53.36 24.39C57.32 24.39 60.5 22.62 61.28 19.71L56.45 18.84C55.97 19.83 55.01 20.52 53.66 20.52C51.98 20.52 50.84 19.47 50.48 17.79H61.79C61.85 17.49 61.88 16.71 61.88 16.26C61.88 11.31 58.52 8.13 53.42 8.13C48.29 8.13 44.69 11.28 44.69 16.2C44.69 21.18 48.23 24.39 53.36 24.39ZM50.42 14.79C50.72 13.08 51.74 12 53.3 12C54.89 12 56.06 13.26 56.21 14.79H50.42ZM63.8649 24H69.4749V15.48C69.4749 13.95 70.4949 12.87 71.8149 12.87C73.1349 12.87 73.9749 13.89 73.9749 15.39V24H79.5849V14.34C79.5849 10.77 77.3349 8.16 74.1249 8.16C72.2949 8.16 71.0049 9 69.7749 10.8H69.4749V8.52H63.8649V24ZM88.6883 24.39C89.6483 24.39 91.0883 24.21 92.0783 23.85V19.95C91.5983 20.07 90.9983 20.16 90.5783 20.16C89.4683 20.16 88.7483 19.35 88.7483 18.15V12.51H91.9883V8.52H88.7483V3.69H84.3383L83.3183 8.52H81.1283V12.51H83.1083V18.42C83.1083 21.99 85.2983 24.39 88.6883 24.39ZM96.95 6.84C98.84 6.84 100.16 5.55 100.16 3.75C100.16 1.95 98.84 0.69 96.95 0.69C95.12 0.69 93.77 1.95 93.77 3.75C93.77 5.55 95.12 6.84 96.95 6.84ZM94.16 24H99.77V8.52H94.16V24ZM106.408 24H114.598L119.698 8.52H113.728L110.638 19.35H110.338L107.248 8.52H101.308L106.408 24Z" fill="#D9D9D9"/>
<path d="M123.601 24.33C125.431 24.33 126.751 23.07 126.751 21.3C126.751 19.53 125.431 18.27 123.601 18.27C121.771 18.27 120.451 19.53 120.451 21.3C120.451 23.07 121.771 24.33 123.601 24.33Z" fill="#84C2F3"/>
</svg>
